<?xml version="1.0" encoding="utf-8"?>
<!-- Generator: Adobe Illustrator 24.2.1, SVG Export Plug-In . SVG Version: 6.00 Build 0)  -->
<svg version="1.1" id="Layer_1" xmlns="http://www.w3.org/2000/svg" xmlns:xlink="http://www.w3.org/1999/xlink" x="0px"
	y="0px" viewBox="0 0 200 196.11" style="enable-background:new 0 0 200 196.11;" xml:space="preserve">
	</style>
	<g>
		<path class="st9" d="M108.01,9C57.2,9,16.01,50.19,16.01,100.99v91.99h91.99c50.81,0,91.99-41.19,91.99-91.99S158.81,9,108.01,9z
		 M65.82,115.69c-7.65,0-13.86-6.21-13.86-13.86c0-7.65,6.21-13.86,13.86-13.86s13.86,6.21,13.86,13.86
		C79.68,109.48,73.48,115.69,65.82,115.69z M108.01,115.69c-7.65,0-13.86-6.21-13.86-13.86c0-7.65,6.21-13.86,13.86-13.86
		s13.86,6.21,13.86,13.86C121.87,109.48,115.66,115.69,108.01,115.69z M150.19,115.69c-7.65,0-13.86-6.21-13.86-13.86
		c0-7.65,6.21-13.86,13.86-13.86c7.65,0,13.86,6.21,13.86,13.86C164.05,109.48,157.84,115.69,150.19,115.69z" />
	</g>
</svg>