<?xml version="1.0" encoding="utf-8"?>
<!-- Generator: Adobe Illustrator 24.2.1, SVG Export Plug-In . SVG Version: 6.00 Build 0)  -->
<svg version="1.1" id="Layer_1" xmlns="http://www.w3.org/2000/svg" xmlns:xlink="http://www.w3.org/1999/xlink" x="0px"
	y="0px" viewBox="0 0 183.75 200" style="enable-background:new 0 0 183.75 200;" xml:space="preserve">
	<g>
		<g>
			<circle class="st9" cx="54.29" cy="35.1" r="35.1" />
			<path class="st9" d="M108.58,162.18l0-26.94c0-29.44-22.89-54.51-52.31-55.56C25.38,78.59,0,103.3,0,133.94v28.25
			c0,3.62,2.94,6.56,6.56,6.56h95.47C105.65,168.74,108.58,165.8,108.58,162.18z" />
		</g>
		<g>
			<circle class="st9" cx="129.46" cy="66.36" r="35.1" />
			<path class="st9" d="M183.75,193.44l0-26.94c0-29.44-22.89-54.51-52.31-55.56c-30.89-1.1-56.27,23.61-56.27,54.25v28.25
			c0,3.62,2.94,6.56,6.56,6.56h95.47C180.82,200,183.75,197.06,183.75,193.44z" />
		</g>
	</g>
</svg>