<?xml version="1.0" encoding="utf-8"?>
<!-- Generator: Adobe Illustrator 24.2.1, SVG Export Plug-In . SVG Version: 6.00 Build 0)  -->
<svg version="1.1" id="Layer_1" xmlns="http://www.w3.org/2000/svg" xmlns:xlink="http://www.w3.org/1999/xlink" x="0px"
	y="0px" viewBox="0 0 197.44 200" style="enable-background:new 0 0 197.44 200;" xml:space="preserve">
	<g>
		<g>
			<path class="st12" d="M77.3,154.52c-0.31,0-0.63,0-0.94-0.01c-20.64-0.24-39.95-8.51-54.37-23.28
			C7.57,116.47-0.24,96.97,0.01,76.33s8.51-39.95,23.28-54.37c30.48-29.78,79.51-29.19,109.27,1.29l0,0
			c29.77,30.49,29.19,79.51-1.29,109.27C116.73,146.73,97.59,154.52,77.3,154.52z M77.27,23.19C63.64,23.19,50,28.3,39.5,38.55
			C29.16,48.65,23.38,62.16,23.21,76.6c-0.17,14.44,5.29,28.09,15.39,38.42c10.09,10.34,23.6,16.12,38.05,16.29
			c14.51,0.04,28.09-5.29,38.42-15.39c21.33-20.83,21.74-55.13,0.91-76.46C105.38,28.63,91.33,23.19,77.27,23.19z" />
		</g>
		<g>
			<path class="st12" d="M185.84,200c-3.01,0-6.03-1.17-8.3-3.5l-62.67-64.18c-4.48-4.59-4.39-11.93,0.19-16.4
			c4.59-4.48,11.93-4.39,16.4,0.19l62.67,64.18c4.48,4.59,4.39,11.93-0.19,16.4C191.68,198.9,188.76,200,185.84,200z" />
		</g>
	</g>
</svg>