<?xml version="1.0" encoding="utf-8"?>
<!-- Generator: Adobe Illustrator 24.2.1, SVG Export Plug-In . SVG Version: 6.00 Build 0)  -->
<svg version="1.1" id="Layer_1" xmlns="http://www.w3.org/2000/svg" xmlns:xlink="http://www.w3.org/1999/xlink" x="0px"
	y="0px" viewBox="0 0 172.09 200" style="enable-background:new 0 0 172.09 200;" xml:space="preserve">
	<g>
		<g>
			<path class="st8" d="M163.03,152.02l8-48.78c5.1-31.12-8.59-60.86-32.98-75.74c1.67-8.89-3.68-17.76-12.56-20.28
			c-8.83-2.51-18.01,2.15-21.31,10.51c-28.74-0.4-56.28,17.73-68.38,47.03l-18.87,45.69c-7.47,1.17-13.95,6.53-16.15,14.28
			c-3.02,10.62,3.14,21.67,13.75,24.69l130.04,36.99c10.62,3.02,21.67-3.14,24.69-13.75C171.45,164.91,168.77,156.94,163.03,152.02z
			" />
			<path class="st8" d="M48.64,165.74c-3.58-1.02-6.85,2.37-5.71,5.91c4.04,12.55,14.07,22.91,27.7,26.78
			c13.63,3.88,27.61,0.34,37.65-8.2c2.84-2.41,1.83-7.02-1.75-8.03L48.64,165.74z" />
		</g>
	</g>
</svg>