<?xml version="1.0" encoding="utf-8"?>
<!-- Generator: Adobe Illustrator 24.2.1, SVG Export Plug-In . SVG Version: 6.00 Build 0)  -->
<svg version="1.1" id="Layer_1" xmlns="http://www.w3.org/2000/svg" xmlns:xlink="http://www.w3.org/1999/xlink" x="0px"
	y="0px" viewBox="0 0 200 121.25" style="enable-background:new 0 0 200 121.25;" xml:space="preserve">
	</style>
	<g>
		<g>
			<path class="st13" d="M100,121.25c-39.74,0-75.94-20.23-96.84-54.11c-2.48-4.02-2.48-9.02,0-13.04C24.06,20.23,60.26,0,100,0
			s75.94,20.23,96.84,54.11c2.48,4.02,2.48,9.01,0,13.03C175.94,101.02,139.74,121.25,100,121.25z M100,9.98
			c-36.25,0-69.27,18.45-88.34,49.37c-0.48,0.79-0.48,1.77,0,2.56c19.07,30.91,52.09,49.36,88.34,49.36s69.27-18.45,88.34-49.36
			c0.48-0.79,0.48-1.77,0-2.55C169.27,28.44,136.25,9.98,100,9.98z" />
			<circle class="st13" cx="100" cy="60.63" r="36.22" />
			<path class="st13" d="M100,101.84c-22.72,0-41.21-18.49-41.21-41.21S77.28,19.41,100,19.41s41.21,18.49,41.21,41.21
			S122.72,101.84,100,101.84z M100,29.39c-17.22,0-31.23,14.01-31.23,31.23S82.78,91.86,100,91.86s31.23-14.01,31.23-31.23
			S117.22,29.39,100,29.39z" />
		</g>
	</g>
</svg>