<?xml version="1.0" encoding="utf-8"?>
<!-- Generator: Adobe Illustrator 24.2.1, SVG Export Plug-In . SVG Version: 6.00 Build 0)  -->
<svg version="1.1" id="Layer_1" xmlns="http://www.w3.org/2000/svg" xmlns:xlink="http://www.w3.org/1999/xlink" x="0px"
	y="0px" viewBox="0 0 200 168.41" style="enable-background:new 0 0 200 168.41;" xml:space="preserve">
	<g>
		<g>
			<path class="st9" d="M188.28,23.43H11.72C5.25,23.43,0,18.19,0,11.72S5.25,0,11.72,0h176.57C194.75,0,200,5.25,200,11.72
			S194.75,23.43,188.28,23.43z" />
		</g>
		<g>
			<path class="st9" d="M188.28,95.92H11.72C5.25,95.92,0,90.68,0,84.21c0-6.47,5.25-11.72,11.72-11.72h176.57
			c6.47,0,11.72,5.25,11.72,11.72C200,90.68,194.75,95.92,188.28,95.92z" />
		</g>
		<g>
			<path class="st9" d="M188.28,168.41H11.72C5.25,168.41,0,163.17,0,156.7c0-6.47,5.25-11.72,11.72-11.72h176.57
			c6.47,0,11.72,5.25,11.72,11.72C200,163.17,194.75,168.41,188.28,168.41z" />
		</g>
	</g>
</svg>